#!OML:ASF I:\Actors\actors\Patient Classification 1\Patient 1\Session 1\Subject1.ASF
:FULLY-SPECIFIED
:DEGREES
1822
root 0.124953 17.5693 8.01311 19.4338 -2.59511 -9.5006
lowerback 4.65955 1.31986 5.33108
upperback -1.07258 2.20863 3.55576
thorax -3.6696 1.01906 0.520156
lowerneck -16.3163 -4.8049 -5.15499
upperneck 19.6694 -6.92208 7.03333
head 9.3213 -2.85994 2.37411
rclavicle -2.76311e-014 -3.97569e-014
rhumerus -2.5712 24.4994 -85.1181
rradius 81.6393
rwrist 25.156
rhand -7.1717 -73.1937
rfingers 7.12502
rthumb 18.7057 -257.686
lclavicle -2.76311e-014 -3.97569e-014
lhumerus 17.9354 -49.6454 71.2348
lradius 66.057
lwrist -20.2479
lhand -45.963 35.2144
lfingers 7.12502
lthumb -18.7101 64.3346
rfemur -20.1434 26.0479 16.4629
rtibia 4.90703
rfoot -9.69963 -26.4992
rtoes 2.14336
lfemur -12.6727 -65.9145 5.7296
ltibia -3.69034
lfoot -78.3606 59.6336
ltoes 39.997
1823
root 0.13003 17.5692 8.0118 19.3845 -2.57225 -9.4938
lowerback 4.64624 1.30162 5.3588
upperback -1.06704 2.18569 3.58954
thorax -3.65743 1.00772 0.541832
lowerneck -16.3506 -4.74783 -4.99498
upperneck 19.7347 -6.83851 6.82364
head 9.33037 -2.82987 2.28643
rclavicle -2.73329e-015 1.27222e-014
rhumerus -2.67476 24.0918 -85.5381
rradius 81.5518
rwrist 24.9452
rhand -8.41785 -72.147
rfingers 7.12502
rthumb 17.5067 -258.621
lclavicle -2.73329e-015 1.27222e-014
lhumerus 17.6552 -49.6136 71.4372
lradius 65.8667
lwrist -20.9442
lhand -46.886 34.4597
lfingers 7.12502
lthumb -19.5977 63.4919
rfemur -20.0858 26.1081 16.455
rtibia 4.91301
rfoot -9.75147 -26.582
rtoes 2.13148
lfemur -12.6883 -65.9734 5.70995
ltibia -3.65085
lfoot -78.2758 59.8644
ltoes 39.7625
1824
root 0.134531 17.5693 8.00986 19.316 -2.57665 -9.51951
lowerback 4.66768 1.28785 5.389
upperback -1.04999 2.17178 3.64618
thorax -3.65352 1.00098 0.584365
lowerneck -16.3753 -4.66182 -4.7197
upperneck 19.7391 -6.70819 6.47325
head 9.30422 -2.78584 2.13743
rclavicle -2.27111e-014 -8.15017e-015
rhumerus -2.64851 23.7266 -85.8358
rradius 81.436
rwrist 24.8734
rhand -9.5817 -71.4832
rfingers 7.12502
rthumb 16.3864 -259.189
lclavicle -2.27111e-014 -8.15017e-015
lhumerus 17.3128 -49.4649 71.8055
lradius 65.6403
lwrist -21.7322
lhand -47.6673 33.7569
lfingers 7.12502
lthumb -20.3487 62.7108
rfemur -20.0275 26.0972 16.5094
rtibia 4.95688
rfoot -9.77144 -26.5569
rtoes 1.93809
lfemur -12.5953 -66.0095 5.63191
ltibia -3.6388
lfoot -78.2043 60.0482
ltoes 39.6102
1825
root 0.13828 17.5701 8.00744 19.2559 -2.57356 -9.51856
lowerback 4.72224 1.29826 5.42857
upperback -1.06836 2.19459 3.66751
thorax -3.70241 1.01045 0.581307
lowerneck -16.6008 -4.7434 -5.095
upperneck 20.0684 -6.78992 6.70265
head 9.48827 -2.81722 2.26532
rclavicle -1.75924e-014 3.95581e-014
rhumerus -2.58492 23.3709 -85.9756
rradius 81.3006
rwrist 24.9589
rhand -10.7 -70.4902
rfingers 7.12502
rthumb 15.3095 -260.096
lclavicle -1.75924e-014 3.95581e-014
lhumerus 16.7881 -49.2771 72.4189
lradius 65.4469
lwrist -22.6062
lhand -48.4104 32.8421
lfingers 7.12502
lthumb -21.0627 61.7182
rfemur -19.9894 26.1091 16.5142
rtibia 4.99298
rfoot -9.82409 -26.5645
rtoes 2.10352
lfemur -12.5345 -66.054 5.56046
ltibia -3.6217
lfoot -78.215 60.0597
ltoes 39.6334
1826
root 0.141279 17.5709 8.00565 19.2024 -2.54949 -9.4774
lowerback 4.74872 1.32286 5.42946
upperback -1.09685 2.23177 3.67118
thorax -3.74615 1.02777 0.580916
lowerneck -16.3845 -4.75174 -4.99673
upperneck 19.8934 -6.79018 6.55878
head 9.37798 -2.8329 2.20199
rclavicle 5.66536e-015 -1.43125e-014
rhumerus -2.46536 23.0578 -85.9433
rradius 81.1113
rwrist 25.0893
rhand -11.5842 -69.2492
rfingers 7.12502
rthumb 14.4577 -261.274
lclavicle 5.66536e-015 -1.43125e-014
lhumerus 16.0872 -49.0042 73.286
lradius 65.3066
lwrist -23.6281
lhand -49.0655 31.5241
lfingers 7.12502
lthumb -21.6919 60.3289
rfemur -19.9469 26.0978 16.4756
rtibia 5.00345
rfoot -9.86777 -26.5747
rtoes 2.37376
lfemur -12.5239 -66.1255 5.4912
ltibia -3.58651
lfoot -78.2872 60.0411
ltoes 39.6451
1827
root 0.144738 17.5709 8.00434 19.1641 -2.55057 -9.44261
lowerback 4.72333 1.3716 5.42161
upperback -1.11286 2.29522 3.6693
thorax -3.74689 1.0593 0.579037
lowerneck -15.9889 -4.7737 -4.89207
upperneck 19.4565 -6.80245 6.42172
head 9.14536 -2.86062 2.141
rclavicle -2.6339e-015 2.3059e-014
rhumerus -2.2876 22.7284 -85.8501
rradius 80.8353
rwrist 25.2838
rhand -12.0951 -68.6873
rfingers 7.12502
rthumb 13.9653 -261.802
lclavicle -2.6339e-015 2.3059e-014
lhumerus 15.3806 -48.6342 74.2853
lradius 65.1397
lwrist -24.8201
lhand -49.6676 29.7675
lfingers 7.12502
lthumb -22.27 58.5043
rfemur -19.9122 26.0312 16.4584
rtibia 5.01243
rfoot -9.7805 -26.5566
rtoes 2.11093
lfemur -12.4664 -66.1724 5.38498
ltibia -3.58118
lfoot -78.3313 60.0992
ltoes 39.5294
